<svg width="258" height="266" viewBox="0 0 258 266" fill="none" xmlns="http://www.w3.org/2000/svg">
<rect width="258" height="266" rx="25" fill="#202022"/>
<path d="M125 153.5C125 161.314 126.552 169.051 129.567 176.27C132.583 183.489 137.002 190.048 142.574 195.573C148.145 201.098 154.759 205.481 162.039 208.471C169.319 211.461 177.121 213 185 213L185 189.2C180.272 189.2 175.591 188.277 171.223 186.482C166.856 184.688 162.887 182.059 159.544 178.744C156.201 175.429 153.55 171.493 151.74 167.162C149.931 162.83 149 158.188 149 153.5L125 153.5Z" fill="#FCFCFE"/>
<path d="M125.5 127C132.132 127 138.699 125.694 144.826 123.156C150.952 120.618 156.52 116.898 161.209 112.209C165.898 107.52 169.618 101.952 172.156 95.8255C174.694 89.6986 176 83.1318 176 76.5L155.8 76.5C155.8 80.4791 155.016 84.4191 153.494 88.0953C151.971 91.7715 149.739 95.1117 146.925 97.9253C144.112 100.739 140.771 102.971 137.095 104.494C133.419 106.016 129.479 106.8 125.5 106.8L125.5 127Z" fill="#FCFCFE"/>
<rect x="82" y="53" width="24" height="160" fill="#FCFCFE"/>
</svg>
